HIERARCHY
ROOT ui
{
	 OFFSET 0 0 0
	 CHANNELS 3 XPosition YPosition Z Position
	 EndSite
	 {
	 OFFSET 0 -1 0
	 }
}
ROOT li
{
	 OFFSET 0 0 0
	 CHANNELS 3 XPosition YPosition Z Position
	 EndSite
	 {
	 OFFSET 0 -1 0
	 }
}
ROOT ul
{
	 OFFSET 0 0 0
	 CHANNELS 3 XPosition YPosition Z Position
	 EndSite
	 {
	 OFFSET 0 -1 0
	 }
}
ROOT ll
{
	 OFFSET 0 0 0
	 CHANNELS 3 XPosition YPosition Z Position
	 EndSite
	 {
	 OFFSET 0 -1 0
	 }
}
ROOT tt
{
	 OFFSET 0 0 0
	 CHANNELS 3 XPosition YPosition Z Position
	 EndSite
	 {
	 OFFSET 0 -1 0
	 }
}
ROOT tb
{
	 OFFSET 0 0 0
	 CHANNELS 3 XPosition YPosition Z Position
	 EndSite
	 {
	 OFFSET 0 -1 0
	 }
}
ROOT td
{
	 OFFSET 0 0 0
	 CHANNELS 3 XPosition YPosition Z Position
	 EndSite
	 {
	 OFFSET 0 -1 0
	 }
}
ROOT v
{
	 OFFSET 0 0 0
	 CHANNELS 3 XPosition YPosition Z Position
	 EndSite
	 {
	 OFFSET 0 -1 0
	 }
}
ROOT bn
{
	 OFFSET 0 0 0
	 CHANNELS 3 XPosition YPosition Z Position
	 EndSite
	 {
	 OFFSET 0 -1 0
	 }
}
MOTION
Frames: 19
Frame Time: 0.002
0.015440240859985351	0.0010317729711532592	0		0.5951207275390625	-2.7803876953125	0		-0.9387520751953125	0.21205328369140625	0		-0.2696976318359375	-3.29317919921875	0		1.77388037109375	-1.0002880859375	0		2.907607666015625	-0.176509521484375	0		4.20470654296875	0.40014599609375	0		5.9134580078125	0.4769541625976563	0		-0.09664195251464844	5.94019921875	0		
-0.001548699975013733	0.003859142065048218	0		0.559339599609375	-2.767200927734375	0		-0.9388017578125	0.21155537414550782	0		-0.26972714233398437	-3.29367333984375	0		1.7768935546875	-0.997827392578125	0		2.905786865234375	-0.16494972229003907	0		4.19339404296875	0.385887451171875	0		5.9082568359375	0.4685913391113281	0		-0.09770562744140625	5.940724609375	0		
0.0014723500013351441	0.006321619033813477	0		0.6112064819335937	-2.77465478515625	0		-0.9429130859375	0.20714280700683593	0		-0.2697335205078125	-3.29415625	0		1.754097412109375	-0.9858614501953125	0		2.90752685546875	-0.1774405822753906	0		4.1843759765625	0.3866126098632813	0		5.9082177734375	0.46816204833984376	0		-0.09779195404052735	5.94024365234375	0		
0.005151978969573975	-0.010218974113464355	0		0.56915234375	-2.778324462890625	0		-0.9429339599609375	0.20666372680664064	0		-0.27173226928710936	-3.295589599609375	0		1.7781990966796875	-0.9807620849609375	0		2.888419921875	-0.18251655578613282	0		4.184353515625	0.38619293212890626	0		5.90819384765625	0.4677623291015625	0		-0.11308360290527343	5.92905859375	0		
-0.0016018949747085571	0.0024546639919281006	0		0.5971867065429688	-2.779299072265625	0		-0.9280520629882812	0.1999136199951172	0		-0.2686297607421875	-3.293106201171875	0		1.7704967041015625	-0.9660450439453125	0		2.8932900390625	-0.19002450561523437	0		4.1772177734375	0.3789289245605469	0		5.9043388671875	0.4754635009765625	0		-0.231352783203125	5.919822265625	0		
0.015359203338623046	-0.0013072719573974608	0		0.5784617919921875	-2.768377197265625	0		-0.9540489501953126	0.19894451904296875	0		-0.26242599487304685	-3.28666748046875	0		1.7787379150390625	-0.9556119384765625	0		2.90753662109375	-0.17868634033203126	0		4.17649560546875	0.39256915283203125	0		5.91335009765625	0.47494595336914064	0		-0.23046485900878907	5.91735693359375	0		
0.011344618797302246	-0.0046606769561767574	0		0.6165265502929688	-2.770509521484375	0		-0.861933837890625	0.20177020263671874	0		-0.2633639221191406	-3.289082275390625	0		1.7780589599609375	-0.9419932861328125	0		2.897301025390625	-0.19387356567382813	0		4.1754169921875	0.38623394775390624	0		5.892236328125	0.4670174560546875	0		-0.11330564117431641	5.92772509765625	0		
0.001574826955795288	0.004111134052276612	0		0.5907015991210938	-2.767424560546875	0		-0.9369213256835938	0.19974591064453126	0		-0.27812432861328124	-3.2832216796875	0		1.7684576416015625	-0.9251880493164063	0		2.877274169921875	-0.19885484313964844	0		4.16422705078125	0.3731105041503906	0		5.90828369140625	0.4664192199707031	0		-0.11434402465820312	5.9283271484375	0		
-0.0014068000316619872	7.699159979820252E-4	0		0.6157379760742188	-2.773277099609375	0		-0.9319461059570312	0.19423475646972657	0		-0.2681865234375	-3.29481103515625	0		1.7408753662109375	-0.9080260009765625	0		2.895124755859375	-0.21152523803710938	0		4.15118310546875	0.36704776000976563	0		5.8923505859375	0.4664495849609375	0		-0.11341786956787109	5.92690771484375	0		
0.011562142372131348	-0.0058524317741394044	0		0.5769125366210938	-2.771913330078125	0		-0.9637867431640625	0.1984305419921875	0		-0.2659880981445312	-3.2932353515625	0		1.73018798828125	-0.8971611328125	0		2.893288330078125	-0.20780024719238283	0		4.1561259765625	0.35967340087890626	0		5.8924228515625	0.4662087097167969	0		-0.23165960693359375	5.917734375	0		
0.0018189259767532348	0.0029722769260406494	0		0.595215576171875	-2.764597412109375	0		-0.9637050170898438	0.19804534912109376	0		-0.2617254638671875	-3.288678466796875	0		1.7246534423828126	-0.8783695068359375	0		2.88811962890625	-0.22199217224121093	0		4.15620361328125	0.3594175109863281	0		5.892498046875	0.4659966735839844	0		-0.23268475341796874	5.91938623046875	0		
0.005975440979003906	0.006557109832763672	0		0.595372802734375	-2.764921142578125	0		-0.9317078857421875	0.19308317565917968	0		-0.23268980407714843	-3.296565185546875	0		1.7150972900390624	-0.8604794921875	0		2.902261962890625	-0.21951593017578125	0		4.1562763671875	0.35918963623046873	0		5.9085654296875	0.46551712036132814	0		-0.09939302825927734	5.93755517578125	0		
-0.001083896040916443	-6.287450194358826E-4	0		0.6214627685546875	-2.768705322265625	0		-0.9465291137695313	0.199016845703125	0		-0.2793295593261719	-3.286015869140625	0		1.70958447265625	-0.83963916015625	0		2.892228271484375	-0.22556192016601562	0		4.15709375	0.3459764099121094	0		5.900623046875	0.46552017211914065	0		-0.1146791763305664	5.927515625	0		
-0.0010358200073242187	-9.234949946403503E-4	0		0.60972998046875	-2.761758544921875	0		-0.939730224609375	0.18556446838378907	0		-0.2601072082519531	-3.28267333984375	0		1.7058455810546875	-0.8298075561523437	0		2.88317333984375	-0.23159739685058595	0		4.15300146484375	0.3388878479003906	0		5.90065673828125	0.4654107666015625	0		-0.10061517333984375	5.937955078125	0		
-0.0010192610025405884	-0.0011950000524520875	0		0.5708644409179687	-2.760285888671875	0		-1.0086337890625	0.1905415954589844	0		-0.2672392272949219	-3.2968212890625	0		1.6995408935546874	-0.7948978881835937	0		2.893935791015625	-0.2459739532470703	0		4.1448779296875	0.3319053649902344	0		5.90548974609375	0.45624594116210937	0		-0.09883525085449218	5.9356435546875	0		
-0.06206925201416016	-0.002312285900115967	0		0.6279461669921875	-2.76056982421875	0		-0.9635419311523438	0.1964236602783203	0		-0.26205572509765623	-3.292171875	0		1.69319482421875	-0.7599625854492188	0		2.8981796875	-0.23219709777832032	0		4.140732421875	0.3258775634765625	0		5.8967666015625	0.47336837768554685	0		-0.2655563659667969	5.91047265625	0		
0.0019445120096206665	0.001277904987335205	0		0.616107666015625	-2.753550048828125	0		-0.9357694702148438	0.18764982604980468	0		-0.29074301147460935	-3.277870361328125	0		1.7013929443359375	-0.7472760009765625	0		2.873625	-0.2588692321777344	0		4.12856298828125	0.3210238037109375	0		5.9085322265625	0.465133544921875	0		-0.11647084808349609	5.92848095703125	0		
-0.0012212129831314087	-0.001863916039466858	0		0.6150567626953125	-2.75570751953125	0		-0.9399415893554688	0.18449354553222655	0		-0.22791561889648437	-3.28823974609375	0		1.6870123291015624	-0.7091436767578125	0		2.864580078125	-0.25580052185058594	0		4.120220703125	0.30912066650390624	0		5.89240771484375	0.4654385070800781	0		-0.11582685852050781	5.92626123046875	0		
0.0016849780082702638	9.091709852218628E-4	0		0.5988934936523438	-2.76156201171875	0		-0.940096435546875	0.18429067993164064	0		-0.2850723571777344	-3.2943671875	0		1.694365478515625	-0.68339111328125	0		2.86621875	-0.26790957641601565	0		4.12080322265625	0.2950728454589844	0		5.8922431640625	0.4654666442871094	0		-0.11617587280273438	5.9260859375	0		
